<?xml version="1.0" encoding="UTF-8"?>
<!DOCTYPE svg PUBLIC "-//W3C//DTD SVG 1.1//EN" "http://www.w3.org/Graphics/SVG/1.1/DTD/svg11.dtd">
<svg version="1.2" width="135.73mm" height="135.73mm" viewBox="0 0 13573 13573" preserveAspectRatio="xMidYMid" fill-rule="evenodd" stroke-width="28.222" stroke-linejoin="round" xmlns="http://www.w3.org/2000/svg" xmlns:ooo="http://xml.openoffice.org/svg/export" xmlns:xlink="http://www.w3.org/1999/xlink" xmlns:presentation="http://sun.com/xmlns/staroffice/presentation" xmlns:smil="http://www.w3.org/2001/SMIL20/" xmlns:anim="urn:oasis:names:tc:opendocument:xmlns:animation:1.0" xmlns:svg="urn:oasis:names:tc:opendocument:xmlns:svg-compatible:1.0" xml:space="preserve">
 <defs class="ClipPathGroup">
  <clipPath id="presentation_clip_path" clipPathUnits="userSpaceOnUse">
   <rect x="0" y="0" width="13573" height="13573"/>
  </clipPath>
  <clipPath id="presentation_clip_path_shrink" clipPathUnits="userSpaceOnUse">
   <rect x="13" y="13" width="13546" height="13546"/>
  </clipPath>
 </defs>
 <defs class="TextShapeIndex">
  <g ooo:slide="id1" ooo:id-list="id3"/>
 </defs>
 <defs class="EmbeddedBulletChars">
  <g id="bullet-char-template-57356" transform="scale(0.00048828125,-0.00048828125)">
   <path d="M 580,1141 L 1163,571 580,0 -4,571 580,1141 Z"/>
  </g>
  <g id="bullet-char-template-57354" transform="scale(0.00048828125,-0.00048828125)">
   <path d="M 8,1128 L 1137,1128 1137,0 8,0 8,1128 Z"/>
  </g>
  <g id="bullet-char-template-10146" transform="scale(0.00048828125,-0.00048828125)">
   <path d="M 174,0 L 602,739 174,1481 1456,739 174,0 Z M 1358,739 L 309,1346 659,739 1358,739 Z"/>
  </g>
  <g id="bullet-char-template-10132" transform="scale(0.00048828125,-0.00048828125)">
   <path d="M 2015,739 L 1276,0 717,0 1260,543 174,543 174,936 1260,936 717,1481 1274,1481 2015,739 Z"/>
  </g>
  <g id="bullet-char-template-10007" transform="scale(0.00048828125,-0.00048828125)">
   <path d="M 0,-2 C -7,14 -16,27 -25,37 L 356,567 C 262,823 215,952 215,954 215,979 228,992 255,992 264,992 276,990 289,987 310,991 331,999 354,1012 L 381,999 492,748 772,1049 836,1024 860,1049 C 881,1039 901,1025 922,1006 886,937 835,863 770,784 769,783 710,716 594,584 L 774,223 C 774,196 753,168 711,139 L 727,119 C 717,90 699,76 672,76 641,76 570,178 457,381 L 164,-76 C 142,-110 111,-127 72,-127 30,-127 9,-110 8,-76 1,-67 -2,-52 -2,-32 -2,-23 -1,-13 0,-2 Z"/>
  </g>
  <g id="bullet-char-template-10004" transform="scale(0.00048828125,-0.00048828125)">
   <path d="M 285,-33 C 182,-33 111,30 74,156 52,228 41,333 41,471 41,549 55,616 82,672 116,743 169,778 240,778 293,778 328,747 346,684 L 369,508 C 377,444 397,411 428,410 L 1163,1116 C 1174,1127 1196,1133 1229,1133 1271,1133 1292,1118 1292,1087 L 1292,965 C 1292,929 1282,901 1262,881 L 442,47 C 390,-6 338,-33 285,-33 Z"/>
  </g>
  <g id="bullet-char-template-9679" transform="scale(0.00048828125,-0.00048828125)">
   <path d="M 813,0 C 632,0 489,54 383,161 276,268 223,411 223,592 223,773 276,916 383,1023 489,1130 632,1184 813,1184 992,1184 1136,1130 1245,1023 1353,916 1407,772 1407,592 1407,412 1353,268 1245,161 1136,54 992,0 813,0 Z"/>
  </g>
  <g id="bullet-char-template-8226" transform="scale(0.00048828125,-0.00048828125)">
   <path d="M 346,457 C 273,457 209,483 155,535 101,586 74,649 74,723 74,796 101,859 155,911 209,963 273,989 346,989 419,989 480,963 531,910 582,859 608,796 608,723 608,648 583,586 532,535 482,483 420,457 346,457 Z"/>
  </g>
  <g id="bullet-char-template-8211" transform="scale(0.00048828125,-0.00048828125)">
   <path d="M -4,459 L 1135,459 1135,606 -4,606 -4,459 Z"/>
  </g>
  <g id="bullet-char-template-61548" transform="scale(0.00048828125,-0.00048828125)">
   <path d="M 173,740 C 173,903 231,1043 346,1159 462,1274 601,1332 765,1332 928,1332 1067,1274 1183,1159 1299,1043 1357,903 1357,740 1357,577 1299,437 1183,322 1067,206 928,148 765,148 601,148 462,206 346,322 231,437 173,577 173,740 Z"/>
  </g>
 </defs>
 <g>
  <g id="id2" class="Master_Slide">
   <g id="bg-id2" class="Background"/>
   <g id="bo-id2" class="BackgroundObjects"/>
  </g>
 </g>
 <g class="SlideGroup">
  <g>
   <g id="container-id1">
    <g id="id1" class="Slide" clip-path="url(#presentation_clip_path)">
     <g class="Page">
      <g class="Graphic">
       <g id="id3">
        <rect class="BoundingBox" stroke="none" fill="none" x="0" y="0" width="13573" height="13573"/>
        <path fill="rgb(67,56,37)" stroke="none" d="M 6775,1132 C 3629,1132 1078,3683 1078,6830 1078,9976 3629,12527 6775,12527 9922,12527 12472,9976 12472,6830 12472,3683 9922,1132 6775,1132 L 6775,1132 Z M 6650,3753 C 6853,3754 7065,3757 7287,3763 10449,3846 11448,5427 11448,5427 11537,5688 11457,5840 11393,5899 11275,6006 11132,6182 10200,5593 8885,4762 6288,4823 6288,4823 6288,4823 4790,4844 3986,5038 3181,5232 2571,5676 2349,5177 2127,4678 2848,4289 2848,4289 L 3025,4221 C 3025,4221 3928,3776 6451,3754 6516,3754 6583,3753 6650,3753 L 6650,3753 Z M 6607,5884 C 6764,5885 6929,5887 7099,5891 9831,5963 10694,7329 10694,7329 10771,7555 10702,7686 10646,7737 10545,7829 10422,7982 9616,7473 8480,6755 6254,6783 6254,6783 6254,6783 4943,6827 4248,6994 3553,7162 3025,7545 2833,7113 2642,6682 3265,6347 3265,6347 L 3418,6287 C 3418,6287 4252,5876 6607,5884 L 6607,5884 Z M 6149,7862 C 6325,7860 6514,7862 6714,7867 8852,7924 9527,8992 9527,8992 9587,9168 9532,9271 9489,9311 9409,9383 9313,9503 8683,9105 7794,8543 6014,8583 6014,8583 6014,8583 5026,8598 4483,8730 3939,8861 3526,9161 3376,8823 3226,8486 3714,8224 3714,8224 L 3833,8177 C 3833,8177 4443,7876 6149,7862 L 6149,7862 Z "/>
        <path fill="none" stroke="rgb(0,0,0)" stroke-width="5" stroke-linejoin="round" d="M 6775,1132 C 3629,1132 1078,3683 1078,6830 1078,9976 3629,12527 6775,12527 9922,12527 12472,9976 12472,6830 12472,3683 9922,1132 6775,1132 Z "/>
        <path fill="none" stroke="rgb(0,0,0)" stroke-width="5" stroke-linejoin="round" d="M 6650,3753 C 6853,3754 7065,3757 7287,3763 10449,3846 11448,5427 11448,5427 11537,5688 11457,5840 11393,5899 11275,6006 11132,6182 10200,5593 8885,4762 6288,4823 6288,4823 6288,4823 4790,4844 3986,5038 3181,5232 2571,5676 2349,5177 2127,4678 2848,4289 2848,4289 L 3025,4221 C 3025,4221 3928,3776 6451,3754 6516,3754 6583,3753 6650,3753 Z "/>
        <path fill="none" stroke="rgb(0,0,0)" stroke-width="5" stroke-linejoin="round" d="M 6607,5884 C 6764,5885 6929,5887 7099,5891 9831,5963 10694,7329 10694,7329 10771,7555 10702,7686 10646,7737 10545,7829 10422,7982 9616,7473 8480,6755 6254,6783 6254,6783 6254,6783 4943,6827 4248,6994 3553,7162 3025,7545 2833,7113 2642,6682 3265,6347 3265,6347 L 3418,6287 C 3418,6287 4252,5876 6607,5884 Z "/>
        <path fill="none" stroke="rgb(0,0,0)" stroke-width="5" stroke-linejoin="round" d="M 6149,7862 C 6325,7860 6514,7862 6714,7867 8852,7924 9527,8992 9527,8992 9587,9168 9532,9271 9489,9311 9409,9383 9313,9503 8683,9105 7794,8543 6014,8583 6014,8583 6014,8583 5026,8598 4483,8730 3939,8861 3526,9161 3376,8823 3226,8486 3714,8224 3714,8224 L 3833,8177 C 3833,8177 4443,7876 6149,7862 Z "/>
       </g>
      </g>
     </g>
    </g>
   </g>
  </g>
 </g>
</svg>